<svg width="120" height="120" viewBox="0 0 120 120" fill="none" xmlns="http://www.w3.org/2000/svg">
<g clip-path="url(#clip0_1437_20056)">
<path d="M0 60.0148V60C0 26.8629 26.8629 0 60 0C93.1123 0 119.96 26.8228 120 59.9257C120.004 63.4655 119.699 66.9363 119.109 70.3123H14.2411C10.6992 66.5993 6.30727 63.7043 1.37789 61.939C0.559922 61.6465 0.000234375 60.8834 0 60.0148Z" fill="#D8F3FF"/>
<path d="M119.471 67.9688C117.997 78.9825 113.513 89.1518 106.875 97.4566C106.509 97.9141 105.113 97.778 104.736 98.223C102.536 100.815 100.838 103.017 98.2329 105.204C97.8717 105.508 97.8253 106.579 97.4564 106.875C87.3305 114.99 74.5031 119.864 60.5864 119.997C46.1592 120.135 32.8933 115.181 22.4763 106.821C21.6408 106.151 21.3248 105.024 21.6701 104.01C22.8159 100.644 23.4375 97.035 23.4375 93.2812C23.4375 83.1483 18.9089 74.073 11.7654 67.9688H119.471Z" fill="#D8F3FF"/>
<path d="M106.875 29.2969V97.4566C104.093 100.933 100.933 104.093 97.4566 106.875H22.5434C19.0814 104.105 15.9328 100.959 13.1597 97.5C12.9778 97.2731 13.7351 96.1073 13.5565 95.8779C12.7587 94.8525 11.9934 93.8006 11.2622 92.7237C11.1002 92.4851 10.0024 93.1828 9.84375 92.9419C5.79938 86.7963 2.87859 79.8581 1.28766 72.4223C0.234375 67.5 0 64.9416 0 64.4531V29.2969C0 27.3553 1.57406 25.7812 3.51562 25.7812H103.359C105.301 25.7812 106.875 27.3553 106.875 29.2969Z" fill="#283C67"/>
<path d="M10.6615 43.5938H97.5V96.3281C97.5 96.9752 96.9752 97.5 96.3281 97.5H13.1597C11.9855 96.0352 10.8785 94.5143 9.84375 92.9416V44.4115C9.84375 43.9598 10.2098 43.5938 10.6615 43.5938Z" fill="#E7E7E7"/>
<path d="M97.4999 43.5938V96.3281C97.4999 96.9752 96.9751 97.5 96.328 97.5H46.79V43.5938H97.4999Z" fill="white"/>
<path d="M97.5 36.3281V44.5312H9.84375V36.3281C9.84375 35.681 10.3685 35.1562 11.0156 35.1562H96.3281C96.9752 35.1562 97.5 35.681 97.5 36.3281Z" fill="#FF9100"/>
<path d="M22.7367 41.0156H15.7008C15.0548 41.0156 14.5312 40.492 14.5312 39.8461V39.8414C14.5312 39.1955 15.0548 38.6719 15.7008 38.6719H22.7367C23.3827 38.6719 23.9062 39.1955 23.9062 39.8414V39.8461C23.9062 40.492 23.3827 41.0156 22.7367 41.0156Z" fill="#F95F00"/>
<path d="M44.5312 52.7344C44.5312 53.3815 44.0065 53.9062 43.3594 53.9062H24.6094C23.9623 53.9062 23.4375 53.3815 23.4375 52.7344C23.4375 52.0873 23.9623 51.5625 24.6094 51.5625H43.3594C44.0065 51.5625 44.5312 52.0873 44.5312 52.7344ZM17.5781 51.5625H15.2344C14.5873 51.5625 14.0625 52.087 14.0625 52.7344C14.0625 53.3815 14.5873 53.9062 15.2344 53.9062H17.5781C18.2252 53.9062 18.75 53.3815 18.75 52.7344C18.75 52.087 18.2252 51.5625 17.5781 51.5625Z" fill="#8078BF"/>
<path d="M21.0938 62.1094V66.7969C21.0938 67.444 20.569 67.9688 19.9219 67.9688H15.2344C14.5873 67.9688 14.0625 67.444 14.0625 66.7969V62.1094C14.0625 61.462 14.5873 60.9375 15.2344 60.9375H19.9219C20.569 60.9375 21.0938 61.462 21.0938 62.1094ZM19.9219 72.6562H15.2344C14.5873 72.6562 14.0625 73.1808 14.0625 73.8281V78.5156C14.0625 79.1627 14.5873 79.6875 15.2344 79.6875H19.9219C20.569 79.6875 21.0938 79.1627 21.0938 78.5156V73.8281C21.0938 73.1808 20.569 72.6562 19.9219 72.6562ZM19.9219 84.375H15.2344C14.5873 84.375 14.0625 84.8995 14.0625 85.5469V90.2344C14.0625 90.8815 14.5873 91.4062 15.2344 91.4062H19.9219C20.569 91.4062 21.0938 90.8815 21.0938 90.2344V85.5469C21.0938 84.8995 20.569 84.375 19.9219 84.375ZM62.1094 60.9375H57.4219C56.7748 60.9375 56.25 61.462 56.25 62.1094V66.7969C56.25 67.444 56.7748 67.9688 57.4219 67.9688H62.1094C62.7565 67.9688 63.2812 67.444 63.2812 66.7969V62.1094C63.2812 61.462 62.7565 60.9375 62.1094 60.9375ZM62.1094 72.6562H57.4219C56.7748 72.6562 56.25 73.1808 56.25 73.8281V78.5156C56.25 79.1627 56.7748 79.6875 57.4219 79.6875H62.1094C62.7565 79.6875 63.2812 79.1627 63.2812 78.5156V73.8281C63.2812 73.1808 62.7565 72.6562 62.1094 72.6562ZM62.1094 84.375H57.4219C56.7748 84.375 56.25 84.8995 56.25 85.5469V90.2344C56.25 90.8815 56.7748 91.4062 57.4219 91.4062H62.1094C62.7565 91.4062 63.2812 90.8815 63.2812 90.2344V85.5469C63.2812 84.8995 62.7565 84.375 62.1094 84.375Z" fill="#CECECE"/>
<path d="M49.2188 62.1094C49.2188 62.7565 48.694 63.2812 48.0469 63.2812H24.6094C23.9623 63.2812 23.4375 62.7565 23.4375 62.1094C23.4375 61.4623 23.9623 60.9375 24.6094 60.9375H48.0469C48.694 60.9375 49.2188 61.4623 49.2188 62.1094ZM24.6094 67.9688H35.1562C35.8034 67.9688 36.3281 67.444 36.3281 66.7969C36.3281 66.1498 35.8034 65.625 35.1562 65.625H24.6094C23.9623 65.625 23.4375 66.1498 23.4375 66.7969C23.4375 67.444 23.9623 67.9688 24.6094 67.9688ZM24.6094 75H42.6192C43.2663 75 43.7911 74.4752 43.7911 73.8281C43.7911 73.181 43.2663 72.6562 42.6192 72.6562H24.6094C23.9623 72.6562 23.4375 73.181 23.4375 73.8281C23.4375 74.4752 23.9623 75 24.6094 75ZM24.6094 79.6875H32.4424C33.0895 79.6875 33.6143 79.1627 33.6143 78.5156C33.6143 77.8685 33.0895 77.3438 32.4424 77.3438H24.6094C23.9623 77.3438 23.4375 77.8685 23.4375 78.5156C23.4375 79.1627 23.9623 79.6875 24.6094 79.6875ZM48.0469 84.375H24.6094C23.9623 84.375 23.4375 84.8998 23.4375 85.5469C23.4375 86.194 23.9623 86.7188 24.6094 86.7188H48.0469C48.694 86.7188 49.2188 86.194 49.2188 85.5469C49.2188 84.8998 48.694 84.375 48.0469 84.375ZM35.1562 89.0625H24.6094C23.9623 89.0625 23.4375 89.5873 23.4375 90.2344C23.4375 90.8815 23.9623 91.4062 24.6094 91.4062H35.1562C35.8034 91.4062 36.3281 90.8815 36.3281 90.2344C36.3281 89.5873 35.8034 89.0625 35.1562 89.0625ZM66.7969 63.2812H90.2344C90.8815 63.2812 91.4062 62.7565 91.4062 62.1094C91.4062 61.4623 90.8815 60.9375 90.2344 60.9375H66.7969C66.1498 60.9375 65.625 61.4623 65.625 62.1094C65.625 62.7565 66.1498 63.2812 66.7969 63.2812ZM66.7969 67.9688H77.3438C77.9909 67.9688 78.5156 67.444 78.5156 66.7969C78.5156 66.1498 77.9909 65.625 77.3438 65.625H66.7969C66.1498 65.625 65.625 66.1498 65.625 66.7969C65.625 67.444 66.1498 67.9688 66.7969 67.9688ZM66.7969 75H84.8067C85.4538 75 85.9786 74.4752 85.9786 73.8281C85.9786 73.181 85.4538 72.6562 84.8067 72.6562H66.7969C66.1498 72.6562 65.625 73.181 65.625 73.8281C65.625 74.4752 66.1498 75 66.7969 75ZM66.7969 79.6875H74.6299C75.277 79.6875 75.8018 79.1627 75.8018 78.5156C75.8018 77.8685 75.277 77.3438 74.6299 77.3438H66.7969C66.1498 77.3438 65.625 77.8685 65.625 78.5156C65.625 79.1627 66.1498 79.6875 66.7969 79.6875ZM90.2344 84.375H66.7969C66.1498 84.375 65.625 84.8998 65.625 85.5469C65.625 86.194 66.1498 86.7188 66.7969 86.7188H90.2344C90.8815 86.7188 91.4062 86.194 91.4062 85.5469C91.4062 84.8998 90.8815 84.375 90.2344 84.375ZM77.3438 89.0625H66.7969C66.1498 89.0625 65.625 89.5873 65.625 90.2344C65.625 90.8815 66.1498 91.4062 66.7969 91.4062H77.3438C77.9909 91.4062 78.5156 90.8815 78.5156 90.2344C78.5156 89.5873 77.9909 89.0625 77.3438 89.0625Z" fill="#C1BDE0"/>
<path d="M20.9524 74.321L16.4992 79.946C16.2775 80.2259 15.9405 80.3897 15.5833 80.3904H15.5802C15.2242 80.3904 14.8877 80.2287 14.6652 79.9507L12.7902 77.607C12.3859 77.1017 12.468 76.3641 12.9733 75.9598C13.4788 75.5557 14.2162 75.6375 14.6205 76.1428L15.5756 77.3367L19.1146 72.8663C19.5163 72.3591 20.2534 72.2733 20.7609 72.6748C21.2683 73.0767 21.3541 73.8136 20.9524 74.321ZM63.1399 86.2742L58.6867 91.8992C58.465 92.179 58.128 92.3428 57.7708 92.3435H57.7677C57.4117 92.3435 57.0752 92.1818 56.8527 91.9038L54.9777 89.5601C54.5735 89.0548 54.6555 88.3172 55.1608 87.9129C55.6663 87.5089 56.4037 87.5906 56.808 88.096L57.7631 89.2899L61.3021 84.8194C61.7038 84.3122 62.4409 84.2264 62.9484 84.6279C63.4558 85.0299 63.5416 85.7667 63.1399 86.2742Z" fill="#2CC47E"/>
<path d="M53.9062 52.7344V15.2344C53.9062 13.2928 55.4803 11.7188 57.4219 11.7188H66.5625C68.5041 11.7188 70.0781 13.2928 70.0781 15.2344V52.7344C70.0781 54.6759 68.5041 56.25 66.5625 56.25H57.4219C55.4803 56.25 53.9062 54.6759 53.9062 52.7344Z" fill="#E3B704"/>
<path d="M120 15.2344V52.7344C120 54.6759 118.426 56.25 116.484 56.25H82.9059C82.5977 56.25 82.3022 56.3714 82.0828 56.5877L71.6306 66.9026C71.0182 67.5068 69.9853 67.2675 69.7013 66.4554L66.4064 57.0352C66.2419 56.565 65.7982 56.2502 65.3002 56.2502H63.5156C61.5741 56.2502 60 54.6762 60 52.7346V15.2344C60 13.2928 61.5741 11.7188 63.5156 11.7188H116.484C118.426 11.7188 120 13.2928 120 15.2344Z" fill="#F7CF2F"/>
<path d="M90.4688 24.6094C90.4688 23.9623 90.9935 23.4375 91.6406 23.4375H112.734C113.381 23.4375 113.906 23.9623 113.906 24.6094C113.906 25.2565 113.381 25.7812 112.734 25.7812H91.6406C90.9935 25.7812 90.4688 25.2565 90.4688 24.6094ZM112.734 32.8125H91.6406C90.9935 32.8125 90.4688 33.3373 90.4688 33.9844C90.4688 34.6315 90.9935 35.1562 91.6406 35.1562H112.734C113.381 35.1562 113.906 34.6315 113.906 33.9844C113.906 33.3373 113.381 32.8125 112.734 32.8125ZM112.734 37.5H91.6406C90.9935 37.5 90.4688 38.0248 90.4688 38.6719C90.4688 39.319 90.9935 39.8438 91.6406 39.8438H112.734C113.381 39.8438 113.906 39.319 113.906 38.6719C113.906 38.0248 113.381 37.5 112.734 37.5ZM112.734 42.1875H91.6406C90.9935 42.1875 90.4688 42.7123 90.4688 43.3594C90.4688 44.0065 90.9935 44.5312 91.6406 44.5312H112.734C113.381 44.5312 113.906 44.0065 113.906 43.3594C113.906 42.7123 113.381 42.1875 112.734 42.1875ZM91.6406 30.4688H108.047C108.694 30.4688 109.219 29.944 109.219 29.2969C109.219 28.6498 108.694 28.125 108.047 28.125H91.6406C90.9935 28.125 90.4688 28.6498 90.4688 29.2969C90.4688 29.944 90.9935 30.4688 91.6406 30.4688Z" fill="white"/>
<path d="M86.7188 30.4688V37.5C86.7188 43.972 81.472 49.2188 75 49.2188C68.528 49.2188 63.2812 43.972 63.2812 37.5V30.4688C63.2812 23.9967 68.528 18.75 75 18.75C81.472 18.75 86.7188 23.9967 86.7188 30.4688Z" fill="#E3B704"/>
<path d="M76.3404 43.6323C76.3404 44.2773 75.8299 44.8002 75.2 44.8002C74.5702 44.8002 74.0597 44.2773 74.0597 43.6323C74.0597 42.9872 74.5702 42.4643 75.2 42.4643C75.8299 42.4643 76.3404 42.9874 76.3404 43.6323ZM80.7923 28.6318C80.641 25.6471 78.2352 23.2617 75.3152 23.2014C72.4842 23.1435 70.0454 25.2647 69.654 28.1368C69.6183 28.3994 69.6001 28.6682 69.6001 28.9358C69.6001 29.3913 69.9607 29.7605 70.4053 29.7605C70.85 29.7605 71.2105 29.3913 71.2105 28.9358C71.2105 28.7443 71.2236 28.5523 71.249 28.3649C71.5276 26.3197 73.2653 24.8074 75.2827 24.8504C77.3627 24.8935 79.0763 26.592 79.1841 28.7172C79.2416 29.8507 78.8541 30.9271 78.0932 31.748C77.3318 32.5694 76.3043 33.0218 75.2 33.0218C74.7554 33.0218 74.3948 33.3909 74.3948 33.8465V38.9817C74.3948 39.4372 74.7554 39.8064 75.2 39.8064C75.6447 39.8064 76.0053 39.4372 76.0053 38.9817V34.6131C77.2453 34.4323 78.3802 33.8339 79.2611 32.8837C80.3291 31.7315 80.8729 30.2213 80.7923 28.6318Z" fill="#FFF5F5"/>
</g>
<defs>
<clipPath id="clip0_1437_20056">
<rect width="120" height="120" fill="white"/>
</clipPath>
</defs>
</svg>
