<svg width="22" height="22" viewBox="0 0 22 22" fill="none" xmlns="http://www.w3.org/2000/svg">
<path d="M11.0007 1.83372C11.7917 1.83372 12.5599 1.93455 13.2923 2.12247L12.834 3.89805C11.7502 3.61821 10.6167 3.5902 9.52038 3.81614C8.42407 4.04209 7.39403 4.51601 6.50919 5.20158C5.62435 5.88716 4.9082 6.76619 4.4156 7.77133C3.923 8.77647 3.66704 9.88103 3.66733 11.0004C3.66733 12.2232 3.96524 13.3993 4.52899 14.4526L4.84983 15.0511L4.24849 17.7526L6.94991 17.1521L7.54849 17.473C8.61057 18.0403 9.79654 18.336 11.0007 18.3337C12.0375 18.3337 13.0626 18.1139 14.0082 17.6887C14.9539 17.2634 15.7986 16.6425 16.4866 15.8669C17.1747 15.0912 17.6905 14.1785 17.9999 13.1889C18.3093 12.1993 18.4054 11.1553 18.2817 10.1259L20.1032 9.90955C20.1459 10.2671 20.1673 10.6307 20.1673 11.0004C20.1673 16.0631 16.0634 20.1671 11.0007 20.1671C9.49492 20.1692 8.01203 19.7988 6.68408 19.0891L1.83399 20.1671L2.91199 15.317C2.20221 13.989 1.83188 12.5061 1.83399 11.0004C1.83399 5.93764 5.93791 1.83372 11.0007 1.83372ZM17.9032 1.21039C17.9379 1.12457 17.9974 1.05107 18.0742 0.99932C18.151 0.947569 18.2414 0.919922 18.334 0.919922C18.4266 0.919922 18.517 0.947569 18.5938 0.99932C18.6706 1.05107 18.7301 1.12457 18.7648 1.21039L18.9977 1.76955C19.3868 2.71837 20.125 3.48183 21.0602 3.90264L21.7174 4.19597C21.8016 4.23491 21.8728 4.29712 21.9227 4.37525C21.9727 4.45338 21.9992 4.54416 21.9992 4.63689C21.9992 4.72961 21.9727 4.8204 21.9227 4.89853C21.8728 4.97666 21.8016 5.03886 21.7174 5.0778L21.0226 5.38764C20.1101 5.7964 19.3841 6.5323 18.9876 7.45014L18.7621 7.96897C18.7268 8.05346 18.6674 8.12562 18.5912 8.17639C18.515 8.22715 18.4255 8.25424 18.334 8.25424C18.2425 8.25424 18.153 8.22715 18.0768 8.17639C18.0006 8.12562 17.9412 8.05346 17.9059 7.96897L17.6795 7.45105C17.2834 6.53304 16.5577 5.79681 15.6454 5.38764L14.9487 5.0778C14.8643 5.03898 14.7928 4.97676 14.7427 4.89853C14.6926 4.8203 14.6659 4.72934 14.6659 4.63643C14.6659 4.54352 14.6926 4.45256 14.7427 4.37433C14.7928 4.2961 14.8643 4.23388 14.9487 4.19505L15.6069 3.90172C16.5421 3.48154 17.2806 2.71877 17.6703 1.77047L17.9032 1.21039Z" fill="#231F20"/>
</svg>
