<svg width="22" height="22" viewBox="0 0 22 22" fill="none" xmlns="http://www.w3.org/2000/svg">
<path d="M8.34794 4.99416C8.8961 3.39 11.1126 3.34141 11.7625 4.84841L11.8175 4.99508L12.5573 7.15841C12.7268 7.65454 13.0008 8.10855 13.3607 8.4898C13.7206 8.87105 14.1581 9.17069 14.6436 9.3685L14.8425 9.44275L17.0059 10.1816C18.61 10.7297 18.6586 12.9462 17.1525 13.5962L17.0059 13.6512L14.8425 14.3909C14.3462 14.5603 13.892 14.8342 13.5106 15.1941C13.1292 15.5541 12.8294 15.9916 12.6315 16.4772L12.5573 16.6752L11.8184 18.8395C11.2703 20.4437 9.05377 20.4922 8.40477 18.9862L8.34794 18.8395L7.6091 16.6762C7.43968 16.1799 7.16578 15.7257 6.80586 15.3443C6.44595 14.9628 6.00841 14.6631 5.52277 14.4652L5.32477 14.3909L3.16143 13.6521C1.55635 13.1039 1.50777 10.8874 3.01477 10.2384L3.16143 10.1816L5.32477 9.44275C5.8209 9.27322 6.2749 8.99926 6.65616 8.63935C7.03741 8.27945 7.33705 7.84196 7.53485 7.35641L7.6091 7.15841L8.34794 4.99416ZM17.4165 1.8335C17.588 1.8335 17.7561 1.8816 17.9016 1.97235C18.0471 2.06309 18.1642 2.19283 18.2397 2.34683L18.2837 2.45408L18.6045 3.39458L19.5459 3.71541C19.7178 3.7738 19.8685 3.88189 19.9788 4.02599C20.0892 4.17009 20.1543 4.34371 20.1659 4.52485C20.1774 4.70598 20.135 4.88648 20.0439 5.04347C19.9528 5.20045 19.8171 5.32686 19.6541 5.40666L19.5459 5.45066L18.6054 5.7715L18.2846 6.71291C18.2261 6.88472 18.1179 7.0353 17.9738 7.14557C17.8296 7.25584 17.656 7.32084 17.4749 7.33232C17.2937 7.34381 17.1133 7.30127 16.9563 7.21009C16.7994 7.11892 16.6731 6.98321 16.5934 6.82016L16.5494 6.71291L16.2285 5.77241L15.2871 5.45158C15.1152 5.39319 14.9646 5.2851 14.8542 5.141C14.7439 4.9969 14.6788 4.82328 14.6672 4.64214C14.6556 4.46101 14.698 4.28051 14.7892 4.12352C14.8803 3.96654 15.0159 3.84014 15.1789 3.76033L15.2871 3.71633L16.2276 3.3955L16.5484 2.45408C16.6102 2.27297 16.7272 2.11575 16.8829 2.00445C17.0385 1.89316 17.2252 1.83338 17.4165 1.8335Z" fill="url(#paint0_linear_1434_5408)"/>
<defs>
<linearGradient id="paint0_linear_1434_5408" x1="20.1677" y1="10.9569" x2="1.91992" y2="10.9569" gradientUnits="userSpaceOnUse">
<stop stop-color="#C059FF"/>
<stop offset="0.565217" stop-color="#2667FD" stop-opacity="0.7"/>
<stop offset="1" stop-color="#2BC8FF"/>
</linearGradient>
</defs>
</svg>
