<svg width="16" height="16" viewBox="0 0 16 16" fill="none" xmlns="http://www.w3.org/2000/svg">
<path d="M6.09375 3.8125L3.04688 9.90625L6.09375 16C9.45922 16 12.1875 13.2717 12.1875 9.90625C12.1875 6.54075 9.45922 3.8125 6.09375 3.8125Z" fill="#FBA837"/>
<path d="M0 9.90625C0 13.2717 2.72825 16 6.09375 16V3.8125C2.72825 3.8125 0 6.54075 0 9.90625Z" fill="#FFCD37"/>
<path d="M6.09375 5.6875L3.98438 9.90625L6.09375 14.125C8.42369 14.125 10.3125 12.2362 10.3125 9.90625C10.3125 7.57631 8.42369 5.6875 6.09375 5.6875Z" fill="#FFCD37"/>
<path d="M1.875 9.90625C1.875 12.2362 3.76381 14.125 6.09375 14.125V5.6875C3.76381 5.6875 1.875 7.57631 1.875 9.90625Z" fill="#FFDE7A"/>
<path d="M9.90625 0L6.85938 6.09375L9.90625 12.1875C13.2717 12.1875 16 9.45925 16 6.09375C16 2.72825 13.2717 0 9.90625 0Z" fill="#F45E38"/>
<path d="M3.8125 6.09375C3.8125 9.45925 6.54075 12.1875 9.90625 12.1875V0C6.54075 0 3.8125 2.72825 3.8125 6.09375Z" fill="#F88338"/>
<path d="M9.90625 10.3125C12.2362 10.3125 14.125 8.42369 14.125 6.09375L7.79688 4.21875L9.90625 10.3125Z" fill="#F88338"/>
<path d="M9.90625 1.875L7.79688 6.09375H14.125C14.125 3.76378 12.2362 1.875 9.90625 1.875Z" fill="#FBA837"/>
<path d="M5.6875 6.09375C5.6875 8.42369 7.57631 10.3125 9.90625 10.3125V6.09375L7.79688 5.15625L5.6875 6.09375Z" fill="#FBA837"/>
<path d="M9.90625 1.875C7.57631 1.875 5.6875 3.76378 5.6875 6.09375H9.90625V1.875Z" fill="#FFCD37"/>
<path d="M11.3125 4.6875H9.90625L8.96875 6.09375L9.90625 7.5H11.3125V4.6875Z" fill="#F45E38"/>
<path d="M8.5 4.6875H9.90625V7.5H8.5V4.6875Z" fill="#F88338"/>
</svg>
